<svg width="50" height="50" viewBox="0 0 50 50" fill="none" xmlns="http://www.w3.org/2000/svg">
<path d="M26.08 6.91935C26.08 6.91935 36.2993 -0.425807 46.0929 8.94193C53.4381 15.9677 49.3929 33.9581 39.4929 33.9581C39.4929 33.9581 37.5768 34.3839 32.7864 32.1484C27.9961 29.9129 22.4606 28.4226 15.5413 32.6806C8.72838 37.0452 -1.06517 32.2548 0.105796 14.7968C0.638054 6.49355 7.1316 0 7.1316 0H24.909C24.909 0 14.6897 9.36774 14.6897 17.1387C14.6897 24.9097 20.651 27.9968 24.909 27.9968C29.1671 27.9968 35.6606 24.8032 35.6606 17.1387C35.6606 9.47419 28.7413 7.02581 26.08 6.91935Z" fill="white"/>
<path d="M0 31.6162V49.1807H49.9258V31.084C49.9258 31.084 47.9032 38.0033 38.6419 38.0033C31.0839 38.0033 29.8064 33.3194 25.0161 33.3194C20.2258 33.3194 19.0548 37.684 9.58064 37.684C2.66129 37.684 0 31.6162 0 31.6162Z" fill="white"/>
</svg>
