<svg width="15" height="15" viewBox="0 0 15 15" fill="none" xmlns="http://www.w3.org/2000/svg">
<path d="M7.83582 2.11039C7.83582 2.11039 10.9062 -0.129871 13.8486 2.72727C16.0554 4.87013 14.8401 10.3571 11.8657 10.3571C11.8657 10.3571 11.29 10.487 9.85075 9.80519C8.41151 9.12337 6.7484 8.66883 4.66951 9.96753C2.6226 11.2987 -0.319835 9.83766 0.031976 4.51299C0.191891 1.98052 2.14285 0 2.14285 0H7.48401C7.48401 0 4.41365 2.85714 4.41365 5.22727C4.41365 7.5974 6.20469 8.53896 7.48401 8.53896C8.76333 8.53896 10.7143 7.56493 10.7143 5.22727C10.7143 2.88961 8.63539 2.14286 7.83582 2.11039Z" fill="#FCCD00"/>
<path d="M0 9.64281V14.9999H15V9.48047C15 9.48047 14.3923 11.5909 11.6098 11.5909C9.33902 11.5909 8.95522 10.1623 7.51599 10.1623C6.07676 10.1623 5.72495 11.4935 2.87846 11.4935C0.799574 11.4935 0 9.64281 0 9.64281Z" fill="#E60C17"/>
</svg>
