<svg width="263" height="47" viewBox="0 0 263 47" fill="none" xmlns="http://www.w3.org/2000/svg">
<g clip-path="url(#clip0_918_764)">
<path d="M69.1001 42.4C70.0001 42.4 70.8001 42.3 71.4001 42.1C72.0001 41.9 72.5001 41.6 72.9001 41.2C73.3001 40.8 73.5001 40.4 73.7001 39.9C73.9001 39.4 73.9001 38.9 73.9001 38.4C73.9001 37.8 73.8001 37.3 73.6001 36.9C73.4001 36.4 73.1001 36.1 72.7001 35.7C72.3001 35.4 71.8001 35.1 71.2001 35C70.6001 34.8 69.9001 34.7 69.0001 34.7H64.1001V42.4H69.1001ZM64.1001 23.7V31.3H68.0001C69.7001 31.3 70.9001 31 71.8001 30.4C72.7001 29.8 73.1001 28.8 73.1001 27.5C73.1001 26.1 72.7001 25.2 71.9001 24.6C71.1001 24 69.9001 23.7 68.3001 23.7H64.1001ZM68.3001 19.9C70.0001 19.9 71.5001 20.1 72.7001 20.4C73.9001 20.7 74.9001 21.2 75.7001 21.8C76.5001 22.4 77.1001 23.1 77.4001 24C77.8001 24.9 77.9001 25.8 77.9001 26.9C77.9001 27.5 77.8001 28.1 77.6001 28.7C77.4001 29.3 77.1001 29.8 76.8001 30.3C76.4001 30.8 75.9001 31.2 75.3001 31.6C74.7001 32 74.0001 32.3 73.2001 32.6C76.8001 33.4 78.6001 35.4 78.6001 38.5C78.6001 39.6 78.4001 40.6 78.0001 41.6C77.6001 42.5 77.0001 43.4 76.1001 44C75.3001 44.7 74.3001 45.2 73.1001 45.6C71.9001 46 70.6001 46.2 69.0001 46.2H59.1001V19.9H68.3001Z" fill="#344689"/>
<path d="M98.1999 27.6V46.2H95.4999C94.8999 46.2 94.4999 45.9 94.3999 45.4L93.9999 43.9C93.1999 44.7 92.3999 45.3 91.4999 45.8C90.5999 46.3 89.4999 46.5 88.1999 46.5C87.1999 46.5 86.2999 46.3 85.4999 46C84.6999 45.7 84.0999 45.2 83.4999 44.5C82.9999 43.9 82.5999 43.1 82.2999 42.3C81.9999 41.4 81.8999 40.5 81.8999 39.4V27.6H86.3999V39.4C86.3999 40.5 86.6999 41.4 87.1999 42C87.6999 42.6 88.4999 42.9 89.5999 42.9C90.3999 42.9 91.0999 42.7 91.7999 42.4C92.4999 42.1 93.0999 41.6 93.6999 41V27.6H98.1999Z" fill="#344689"/>
<path d="M107.1 19.2V34.7H107.9C108.2 34.7 108.4 34.7 108.6 34.6C108.8 34.5 109 34.4 109.1 34.1L113.7 28.4C113.9 28.1 114.1 28 114.3 27.8C114.5 27.7 114.8 27.6 115.2 27.6H119.3L113.5 34.5C113.1 35 112.6 35.5 112.2 35.8C112.5 36 112.7 36.2 112.9 36.4C113.1 36.6 113.3 36.9 113.5 37.2L119.7 46.2H115.6C115.2 46.2 114.9 46.1 114.7 46C114.4 45.9 114.2 45.7 114.1 45.4L109.3 38.3C109.1 38 109 37.8 108.8 37.8C108.6 37.7 108.3 37.7 108 37.7H107V46.2H102.5V19.2H107.1Z" fill="#344689"/>
<path d="M126.7 27.6V46.2H122.2V27.6H126.7ZM127.3 22.1C127.3 22.5 127.2 22.9 127.1 23.2C126.9 23.5 126.7 23.8 126.5 24.1C126.2 24.4 125.9 24.6 125.6 24.7C125.2 24.9 124.9 24.9 124.5 24.9C124.1 24.9 123.7 24.8 123.4 24.7C123.1 24.5 122.8 24.3 122.5 24.1C122.2 23.8 122 23.5 121.9 23.2C121.7 22.9 121.7 22.5 121.7 22.1C121.7 21.7 121.8 21.3 121.9 21C122.1 20.6 122.3 20.3 122.5 20.1C122.8 19.8 123.1 19.6 123.4 19.5C123.7 19.3 124.1 19.3 124.5 19.3C124.9 19.3 125.3 19.4 125.6 19.5C126 19.7 126.3 19.9 126.5 20.1C126.8 20.4 127 20.7 127.1 21C127.3 21.3 127.3 21.7 127.3 22.1Z" fill="#344689"/>
<path d="M137.5 46.5C135.9 46.5 134.6 46 133.8 45.1C132.9 44.2 132.5 42.9 132.5 41.3V30.9H130.6C130.4 30.9 130.2 30.8 130 30.7C129.8 30.5 129.7 30.3 129.7 30V28.2L132.7 27.7L133.6 22.6C133.7 22.4 133.8 22.2 133.9 22C134.1 21.9 134.3 21.8 134.6 21.8H136.9V27.7H141.9V30.9H136.9V41C136.9 41.6 137 42 137.3 42.4C137.6 42.7 138 42.9 138.5 42.9C138.8 42.9 139 42.9 139.2 42.8C139.4 42.7 139.6 42.7 139.7 42.6C139.8 42.5 140 42.5 140.1 42.4C140.2 42.3 140.3 42.3 140.4 42.3C140.5 42.3 140.6 42.3 140.7 42.4C140.8 42.5 140.9 42.6 141 42.7L142.3 44.9C141.6 45.4 140.9 45.9 140 46.1C139.3 46.3 138.4 46.5 137.5 46.5Z" fill="#344689"/>
<path d="M160.6 36.4L157 26.8C156.7 26.1 156.4 25.1 156.1 24C156 24.6 155.8 25.1 155.7 25.6C155.5 26.1 155.4 26.5 155.3 26.9L151.7 36.4H160.6ZM168.7 46.2H165.4C165 46.2 164.7 46.1 164.5 45.9C164.3 45.7 164.1 45.5 164 45.2L161.8 39.4H150.5L148.3 45.2C148.2 45.4 148 45.7 147.8 45.9C147.6 46.1 147.3 46.2 146.9 46.2H143.6L154 20H158.3L168.7 46.2Z" fill="#344689"/>
<path d="M182.1 31C182 31.2 181.9 31.3 181.8 31.4C181.7 31.5 181.5 31.5 181.3 31.5C181.1 31.5 180.9 31.4 180.6 31.3C180.4 31.2 180.1 31 179.7 30.9C179.4 30.7 179 30.6 178.5 30.5C178.1 30.4 177.5 30.3 176.9 30.3C176.4 30.3 176 30.4 175.6 30.5C175.2 30.6 174.9 30.8 174.6 31C174.3 31.2 174.1 31.5 174 31.7C173.9 32 173.8 32.3 173.8 32.6C173.8 33 173.9 33.4 174.2 33.7C174.5 34 174.8 34.2 175.3 34.5C175.7 34.7 176.2 34.9 176.8 35.1C177.4 35.3 177.9 35.5 178.5 35.6C179.1 35.8 179.7 36 180.2 36.3C180.8 36.6 181.3 36.9 181.7 37.2C182.1 37.6 182.5 38 182.8 38.5C183.1 39 183.2 39.7 183.2 40.4C183.2 41.3 183 42.1 182.7 42.8C182.4 43.5 181.9 44.2 181.3 44.7C180.7 45.2 179.9 45.7 179 46C178.1 46.3 177.1 46.5 175.9 46.5C175.3 46.5 174.6 46.4 174 46.3C173.4 46.2 172.8 46 172.3 45.8C171.8 45.6 171.3 45.4 170.8 45.1C170.3 44.8 169.9 44.5 169.6 44.2L170.5 42.7C170.6 42.5 170.7 42.4 170.9 42.3C171.1 42.2 171.3 42.1 171.5 42.1C171.8 42.1 172 42.2 172.3 42.3C172.5 42.5 172.8 42.6 173.2 42.8C173.5 43 173.9 43.2 174.4 43.3C174.9 43.5 175.5 43.5 176.2 43.5C176.8 43.5 177.3 43.4 177.7 43.3C178.1 43.2 178.5 43 178.8 42.7C179.1 42.5 179.3 42.2 179.4 41.9C179.5 41.6 179.6 41.3 179.6 40.9C179.6 40.4 179.5 40 179.2 39.7C178.9 39.4 178.6 39.1 178.1 38.9C177.7 38.7 177.2 38.5 176.6 38.3C176 38.1 175.5 37.9 174.9 37.8C174.3 37.6 173.7 37.4 173.2 37.1C172.6 36.8 172.1 36.5 171.7 36.1C171.3 35.7 170.9 35.2 170.6 34.7C170.3 34.1 170.2 33.4 170.2 32.6C170.2 31.9 170.3 31.2 170.6 30.5C170.9 29.8 171.3 29.2 171.9 28.7C172.5 28.2 173.2 27.8 174 27.5C174.8 27.2 175.8 27.1 176.9 27.1C178.1 27.1 179.3 27.3 180.3 27.7C181.3 28.1 182.2 28.6 182.9 29.3L182.1 31Z" fill="#344689"/>
<path d="M196.8 38.1C195.4 38.1 194.2 38.3 193.3 38.4C192.3 38.6 191.6 38.8 191 39.1C190.4 39.4 190 39.7 189.7 40.1C189.4 40.5 189.3 40.9 189.3 41.3C189.3 41.7 189.4 42.1 189.5 42.4C189.6 42.7 189.8 43 190.1 43.2C190.3 43.4 190.6 43.5 191 43.6C191.3 43.7 191.7 43.7 192.1 43.7C193.1 43.7 194 43.5 194.7 43.1C195.4 42.7 196.1 42.2 196.8 41.4V38.1ZM186.4 30.2C188.5 28.3 191 27.3 193.9 27.3C195 27.3 195.9 27.5 196.7 27.8C197.5 28.1 198.2 28.6 198.8 29.3C199.4 29.9 199.8 30.7 200.1 31.5C200.4 32.4 200.5 33.3 200.5 34.4V46.2H198.8C198.4 46.2 198.1 46.1 197.9 46C197.7 45.9 197.5 45.7 197.4 45.3L197 43.8C196.5 44.2 196.1 44.6 195.6 44.9C195.1 45.2 194.7 45.5 194.2 45.7C193.7 45.9 193.2 46.1 192.6 46.2C192 46.3 191.4 46.4 190.7 46.4C189.9 46.4 189.2 46.3 188.6 46.1C188 45.9 187.4 45.6 186.9 45.2C186.4 44.8 186.1 44.3 185.8 43.6C185.5 43 185.4 42.3 185.4 41.4C185.4 40.7 185.6 40 186 39.3C186.4 38.6 187 38 187.9 37.5C188.8 37 189.9 36.5 191.4 36.2C192.8 35.8 194.6 35.6 196.7 35.6V34.4C196.7 33.1 196.4 32.1 195.8 31.4C195.2 30.7 194.4 30.4 193.3 30.4C192.5 30.4 191.9 30.5 191.4 30.7C190.9 30.9 190.4 31.1 190.1 31.3C189.7 31.5 189.4 31.7 189.1 31.9C188.8 32.1 188.5 32.2 188.2 32.2C187.9 32.2 187.7 32.1 187.5 32C187.3 31.9 187.2 31.7 187 31.5L186.4 30.2Z" fill="#344689"/>
<path d="M205.1 46.2V27.7H207.5C208 27.7 208.4 27.9 208.5 28.4L208.8 30C209.1 29.6 209.5 29.3 209.9 28.9C210.3 28.6 210.7 28.3 211.1 28.1C211.5 27.9 212 27.7 212.4 27.5C212.9 27.4 213.4 27.3 214 27.3C214.6 27.3 215.1 27.4 215.6 27.6C216.1 27.8 216.5 28 216.9 28.3C217.3 28.6 217.6 29 217.9 29.4C218.2 29.8 218.4 30.4 218.6 30.9C218.9 30.3 219.2 29.7 219.7 29.2C220.1 28.7 220.6 28.4 221.1 28.1C221.6 27.8 222.2 27.6 222.8 27.5C223.4 27.4 224 27.3 224.6 27.3C225.6 27.3 226.5 27.5 227.3 27.8C228.1 28.1 228.7 28.6 229.3 29.2C229.8 29.8 230.2 30.5 230.5 31.4C230.8 32.3 230.9 33.3 230.9 34.4V46.2H227V34.4C227 33.1 226.7 32.1 226.2 31.4C225.6 30.7 224.8 30.4 223.7 30.4C223.2 30.4 222.7 30.5 222.3 30.7C221.9 30.9 221.5 31.1 221.2 31.4C220.9 31.7 220.6 32.1 220.4 32.6C220.2 33.1 220.1 33.7 220.1 34.3V46.1H216V34.4C216 33 215.7 32 215.2 31.4C214.7 30.8 213.9 30.4 212.8 30.4C212.1 30.4 211.4 30.6 210.8 31C210.2 31.4 209.6 31.9 209.1 32.5V46.2H205.1Z" fill="#344689"/>
<path d="M258 14C258 14.4 257.6 14.8 257.2 14.8C256.8 14.8 256.4 14.4 256.4 14C256.4 13.6 256.8 13.2 257.2 13.2C257.7 13.2 258 13.5 258 14Z" fill="#E60C17"/>
<path d="M258.5 30.6C258.5 30.2 258.1 29.8 257.7 29.8C257.3 29.8 256.9 30.2 256.9 30.6C256.9 31 257.3 31.4 257.7 31.4C258.1 31.4 258.5 31 258.5 30.6Z" fill="#E60C17"/>
<path d="M258.8 22.4C258.8 22 258.4 21.6 258 21.6C257.6 21.6 257.2 22 257.2 22.4C257.2 22.8 257.6 23.2 258 23.2C258.4 23.2 258.8 22.9 258.8 22.4Z" fill="#E60C17"/>
<path d="M259.9 15.5L258.6 16.5C259.8 18.2 260.5 20.2 260.5 22.5C260.5 24.8 259.7 26.9 258.5 28.6L259.8 29.6C261.3 27.6 262.2 25.2 262.2 22.5C262.1 19.9 261.3 17.5 259.9 15.5Z" fill="#E60C17"/>
<path d="M250.4 32.6C250.4 32.6 250.3 32.6 250.4 32.6V30.9C254.3 30.9 257.6 28.2 258.5 24.7H256.8C255.9 27.4 253.4 29.3 250.4 29.3C246.7 29.3 243.6 26.3 243.6 22.5C243.6 18.7 246.6 15.7 250.4 15.7C253.4 15.7 255.9 17.6 256.8 20.3H258.5C257.5 16.7 254.3 14.1 250.4 14.1V12.4C251.9 12.4 253.3 12.7 254.5 13.3L255.2 11.8C253.7 11.1 252.1 10.8 250.4 10.8C243.9 10.8 238.6 16.1 238.6 22.6C238.6 29.1 243.9 34.4 250.4 34.4C252.6 34.4 254.7 33.8 256.5 32.7L255.6 31.3C254.1 32 252.3 32.6 250.4 32.6Z" fill="#E60C17"/>
<path d="M24.5 6.5C24.5 6.5 34.1 -0.400001 43.3 8.4C50.2 15 46.4 31.9 37.1 31.9C37.1 31.9 35.3 32.3 30.8 30.2C26.3 28.1 21.1 26.7 14.6 30.7C8.19998 34.8 -1.00002 30.3 0.0999761 13.9C0.599976 6.1 6.69998 0 6.69998 0H23.4C23.4 0 13.8 8.8 13.8 16.1C13.8 23.4 19.4 26.3 23.4 26.3C27.4 26.3 33.5 23.3 33.5 16.1C33.5 8.9 27 6.6 24.5 6.5Z" fill="#FCCD00"/>
<path d="M0 29.7V46.2H46.9V29.2C46.9 29.2 45 35.7 36.3 35.7C29.2 35.7 28 31.3 23.5 31.3C19 31.3 17.9 35.4 9 35.4C2.5 35.4 0 29.7 0 29.7Z" fill="#E60C17"/>
</g>
<defs>
<clipPath id="clip0_918_764">
<rect width="262.1" height="46.5" fill="white"/>
</clipPath>
</defs>
</svg>
